<svg xmlns="http://www.w3.org/2000/svg" xmlns:xlink="http://www.w3.org/1999/xlink" viewBox="0 0 256.97399 236.48999"><g transform="translate(-132.628 -222.799)" fill="#a01e20" style="--darkreader-inline-fill:#971c1e;" data-darkreader-inline-fill=""><defs><path d="M155.503 222.799c-12.64 0-22.875 10.246-22.875 22.872v211.23c0 .801.046 1.608.123 2.388 8.5-3.167 17.524-6.629 27.054-10.436 66.336-26.48 120.569-48.994 120.618-74.415 0-.814-.056-1.636-.172-2.458-3.43-25.098-63.407-32.879-63.324-44.381.007-.611.18-1.25.548-1.889 7.205-12.619 35.743-12.015 46.253-12.907 10.519-.913 35.206-.724 36.399-8.244.035-.232.057-.463.057-.695.028-6.987-16.977-9.726-16.977-9.726s20.635 3.083 20.579 11.11c0 .393-.048.8-.158 1.214-2.222 8.624-20.379 10.246-32.386 10.835-11.356.569-28.648 1.861-28.707 7.408-.007.323.049.66.165 1.004 2.71 8.11 66.09 12.015 106.64 33.061 23.335 12.099 34.94 32.422 40.263 53.418v-166.52c0-12.626-10.243-22.872-22.869-22.872H155.503z" id="a"></path></defs><clipPath id="b"><use height="800" width="1280" overflow="visible" xlink:href="#a"></use></clipPath><path clip-path="url(#b)" d="M132.627 222.799h256.975v236.49H132.627z"></path></g></svg>
