<svg xmlns="http://www.w3.org/2000/svg" xmlns:xlink="http://www.w3.org/1999/xlink" width="1200" height="1200" viewBox="0 0 1200 1200"><style><![CDATA[#mail-tutanota-link:hover .st1{fill:url(#tutanota_3_)}]]></style><a id="mail-tutanota-link" xlink:href="http://free.arinco.org/mail/tutanota/"><defs><path id="base_1_" d="M0 1200V93.75C0 42.188 42.188 0 93.75 0h1012.5c51.563 0 93.75 42.188 93.75 93.75V1200"/></defs><clipPath id="base_2_"><use xlink:href="#base_1_" overflow="visible"/></clipPath><linearGradient id="tutanota_2_" gradientUnits="userSpaceOnUse" x1="600" y1=".001" x2="600" y2="1152.155"><stop offset="0" stop-color="#c1141f"/><stop offset="1" stop-color="#801b1f"/></linearGradient><linearGradient id="tutanota_3_" gradientUnits="userSpaceOnUse" x1="600" y1=".001" x2="600" y2="1152.155"><stop offset="0" stop-color="#801b1f"/><stop offset="1"/></linearGradient><path id="tutanota_1_" d="M1200 .001v927.154c-38.548-145.686-129.737-227.965-267.273-277.734-99.137-35.872-208.783-58.725-323.438-84.375-16.299-3.646-35.01-8.345-53.906-14.063-17.033-5.154-41.389-11.53-42.188-24.609-1.296-21.241 42.36-26.054 65.625-29.297 27.145-3.783 61.618-5.453 86.718-7.031 52.101-3.276 132.976-14.313 133.594-55.078.432-28.415-44.001-38.717-67.969-46.875-1.971 1.914 8.432 4.176 12.891 5.859 14.051 5.305 37.015 14.499 37.5 32.813.697 26.28-44.236 31.891-70.313 35.156-93.636 11.727-209.626 2.384-277.734 35.156-14.21 6.838-40.367 23.54-39.844 42.188.673 24.001 47.085 39.7 69.141 49.219 31.94 13.786 58.094 24.183 83.203 35.156 50.865 22.232 116.021 51.89 137.109 99.609 11.989 27.129 3.415 62.049-8.203 82.031-29.193 50.216-85.218 86.07-138.281 117.188-55.912 32.79-114.758 57.67-172.266 83.203-121.744 54.058-242.513 101.417-364.367 146.484L0 .001" clip-path="url(#base_2_)" fill-rule="evenodd" clip-rule="evenodd" fill="url(#tutanota_2_)"/></a></svg>
